<svg width="33" height="46" viewBox="0 0 33 46" fill="none" xmlns="http://www.w3.org/2000/svg">
<g clip-path="url(#clip0_3144_523)">
<path fill-rule="evenodd" clip-rule="evenodd" d="M33 13.1429C33 5.88425 27.0902 0 19.8 0H0V18.86H9.9V7.88571C9.9 7.15983 10.491 6.57143 11.22 6.57143H13.2C15.0225 6.57143 16.5 8.04251 16.5 9.85714V11.8286C16.5 12.5545 17.091 13.1429 17.82 13.1429H18.15C19.9725 13.1429 21.45 14.6139 21.45 16.4286V29.5714C21.45 31.3861 19.9725 32.8571 18.15 32.8571H17.82C17.091 32.8571 16.5 33.4455 16.5 34.1714V36.1429C16.5 37.9575 15.0225 39.4286 13.2 39.4286H11.22C10.491 39.4286 9.9 38.8402 9.9 38.1143V27.0743H0V46H19.8C27.0902 46 33 40.1157 33 32.8571V13.1429Z" fill="black"/>
</g>
<defs>
<clipPath id="clip0_3144_523">
<rect width="33" height="46" fill="white"/>
</clipPath>
</defs>
</svg>
